<svg width="130" height="130" viewBox="0 0 130 130" fill="none" xmlns="http://www.w3.org/2000/svg">
<path d="M129 1L1 129" stroke="#87C0F4" stroke-width="1.266" stroke-miterlimit="10" stroke-dasharray="3.78 3.78"/>
<path d="M64.7281 126.44C52.5227 126.44 40.5913 122.82 30.4428 116.039C20.2943 109.258 12.3845 99.6202 7.71369 88.3438C3.04285 77.0674 1.82075 64.6592 4.20192 52.6882C6.58309 40.7173 12.4606 29.7213 21.0912 21.0907C29.7217 12.4601 40.7178 6.5826 52.6887 4.20143C64.6597 1.82026 77.0679 3.04236 88.3443 7.7132C99.6207 12.384 109.259 20.2938 116.04 30.4423C122.821 40.5908 126.44 52.5222 126.44 64.7277C126.44 81.0947 119.938 96.7914 108.365 108.365C96.7919 119.938 81.0952 126.44 64.7281 126.44V126.44Z" fill="white"/>
<path d="M64.7281 126.44C52.5227 126.44 40.5913 122.82 30.4428 116.039C20.2943 109.258 12.3845 99.6202 7.71369 88.3438C3.04285 77.0674 1.82075 64.6592 4.20192 52.6882C6.58309 40.7173 12.4606 29.7213 21.0912 21.0907C29.7217 12.4601 40.7178 6.5826 52.6887 4.20143C64.6597 1.82026 77.0679 3.04236 88.3443 7.7132C99.6207 12.384 109.259 20.2938 116.04 30.4423C122.821 40.5908 126.44 52.5222 126.44 64.7277C126.44 81.0947 119.938 96.7914 108.365 108.365C96.7919 119.938 81.0952 126.44 64.7281 126.44V126.44Z" fill="#C4C4C4"/>
<path d="M25.1871 31.4044C19.4701 31.4334 17.5871 37.6414 23.1711 43.4984C27.0057 47.3909 31.2193 50.8909 35.7491 53.9464C35.7491 53.9464 31.5701 69.9584 37.7071 80.7644C43.8441 91.5704 53.1271 98.5854 64.7541 103.234C71.2236 105.923 78.0168 107.754 84.9611 108.68L107.233 123.704L129.977 99.0404C129.977 99.0404 103.805 71.2334 97.9411 61.9404C92.0771 52.6474 53.2451 33.1514 40.0131 38.0214C40.0131 38.0214 30.9051 31.3754 25.1871 31.4044Z" fill="#F9D2DD"/>
<path d="M46.9908 61.5934L38.0518 37.1934L32.4658 51.6934L46.9908 61.5934Z" fill="#F9ACC0"/>
<path d="M92.791 87.3089C92.027 86.9009 90.566 85.9089 89.443 85.1349C89.4259 73.3534 87.3664 61.6639 83.356 50.5859C82.7747 50.2526 82.1844 49.9193 81.585 49.5859L74.019 50.6509L80.559 107.979C81.809 108.227 82.824 108.394 83.559 108.501C84.4119 107.383 85.149 106.182 85.759 104.915L85.204 108.767L93.004 114.029C91.4307 109.151 91.0498 103.967 91.893 98.9119C93.06 92.3439 99.593 89.8559 99.593 89.8559C97.2088 89.3598 94.9148 88.5008 92.791 87.3089V87.3089Z" fill="#F9ACC0"/>
<path d="M43.5381 101.492C42.1715 101.495 40.8592 100.957 39.8879 99.9955C38.9166 99.0341 38.3652 97.7274 38.3541 96.3608L37.9951 25.7938C37.9924 24.4274 38.5305 23.1154 39.4919 22.1443C40.4532 21.1732 41.7597 20.6219 43.1261 20.6108L79.8951 20.4238C81.2618 20.4209 82.574 20.9588 83.5453 21.9202C84.5166 22.8816 85.068 24.1883 85.0791 25.5548L85.4361 96.1238C85.4388 97.4904 84.9008 98.8025 83.9395 99.7737C82.9781 100.745 81.6716 101.296 80.3051 101.308L43.5381 101.492Z" fill="#3D5CFF"/>
<path d="M71.4092 22.2019L71.4182 24.4699C71.4182 25.0041 71.207 25.5167 70.8307 25.8958C70.4544 26.275 69.9434 26.49 69.4092 26.4939L53.4352 26.5759C52.9012 26.5765 52.3885 26.3659 52.009 25.9902C51.6296 25.6144 51.4139 25.1039 51.4092 24.5699L51.3982 22.3039L45.1372 22.3359C43.8779 22.346 42.6737 22.854 41.7878 23.7491C40.9019 24.6442 40.4062 25.8536 40.4092 27.1129L40.7532 94.5319C40.7632 95.7913 41.2713 96.9954 42.1664 97.8813C43.0615 98.7672 44.2708 99.2629 45.5302 99.2599L78.0632 99.0949C79.3225 99.0849 80.5267 98.5768 81.4126 97.6817C82.2985 96.7866 82.7941 95.5773 82.7912 94.3179L82.4462 26.8989C82.4354 25.6396 81.9269 24.4356 81.0318 23.5497C80.1367 22.6638 78.9276 22.1678 77.6682 22.1699L71.4092 22.2019Z" fill="white"/>
<path d="M45.153 44.0028C44.444 44.0028 43.861 43.2328 43.853 42.2798L43.833 35.6948C43.833 34.7418 44.406 33.9588 45.116 33.9548L49.568 33.9238C50.277 33.9238 50.86 34.6938 50.868 35.6468L50.893 42.2318C50.893 43.1828 50.32 43.9658 49.61 43.9718L45.153 44.0028Z" fill="#EAEAFF"/>
<path d="M54.2238 44.0028C53.5148 44.0028 52.9318 43.2328 52.9238 42.2798L52.9038 35.6948C52.9038 34.7418 53.4768 33.9588 54.1868 33.9548L58.6388 33.9238C59.3478 33.9238 59.9308 34.6938 59.9388 35.6468L59.9638 42.2318C59.9638 43.1828 59.3908 43.9658 58.6808 43.9718L54.2238 44.0028Z" fill="#EAEAFF"/>
<path d="M63.2951 44.0028C62.5861 44.0028 62.0031 43.2328 61.9951 42.2798L61.9751 35.6948C61.9751 34.7418 62.5481 33.9588 63.2581 33.9548L67.7101 33.9238C68.4191 33.9238 69.0021 34.6938 69.0101 35.6468L69.0351 42.2318C69.0351 43.1828 68.4621 43.9658 67.7521 43.9718L63.2951 44.0028Z" fill="#EAEAFF"/>
<path d="M72.3659 44.0028C71.6569 44.0028 71.0739 43.2328 71.0659 42.2798L71.0459 35.6948C71.0459 34.7418 71.6189 33.9588 72.3289 33.9548L76.7809 33.9238C77.4899 33.9238 78.0729 34.6938 78.0809 35.6468L78.1059 42.2318C78.1059 43.1828 77.5329 43.9658 76.8229 43.9718L72.3659 44.0028Z" fill="#EAEAFF"/>
<path d="M40.7377 92.2917L40.5317 51.6797L40.7177 92.2947L40.7377 92.2917Z" fill="#EAEAFF"/>
<path d="M49.4018 77.0576C50.1898 76.2442 50.8059 75.2805 51.2134 74.2239C51.6209 73.1673 51.8115 72.0395 51.7738 70.9076C51.5658 67.1906 47.3038 64.2876 47.3038 64.2876C48.3913 63.2471 49.1867 61.9394 49.6105 60.4952C50.0343 59.051 50.0716 57.5208 49.7188 56.0576C48.7478 52.1126 43.4088 51.1216 40.5288 50.7656V51.6806L40.7398 92.2926C43.3098 91.9506 46.2398 89.9536 48.4308 86.3786C50.9838 82.2106 49.4018 77.0576 49.4018 77.0576Z" fill="#EAEAFF"/>
<path d="M84.9459 59.0681L82.5879 54.9141L82.6939 75.7661C83.5029 77.6431 84.1179 78.8461 84.1179 78.8461L84.9459 59.0681Z" fill="#EAEAFF"/>
<path d="M82.6928 75.7654L82.5868 54.9134L78.2518 47.2734C78.2518 47.2734 77.9608 59.2184 79.3348 65.6924C80.1345 69.1483 81.2589 72.521 82.6928 75.7654V75.7654Z" fill="#EAEAFF"/>
<path d="M85.4022 77.9749C84.7352 75.5829 85.7022 71.1929 84.8122 69.6539C82.2002 65.1469 79.5022 59.9659 78.4742 56.2539C76.2472 48.1899 76.8792 40.1149 81.4132 38.9169C85.9472 37.7189 90.3632 46.4379 91.8952 49.7929C93.4272 53.1479 100.389 66.7329 100.389 66.7329L97.8972 87.1329C97.8972 87.1329 88.9292 90.6139 85.4022 77.9749Z" fill="#F9D2DD"/>
<path d="M47.8519 53.2127C51.2339 56.8957 48.9029 61.4477 46.8919 62.8017C45.8786 63.5531 44.7066 64.0625 43.4659 64.2907C43.4659 64.2907 49.0099 65.8287 49.6219 70.5237C49.8963 71.9158 49.6124 73.3599 48.8316 74.5444C48.0507 75.729 46.8354 76.5592 45.4479 76.8557C46.3667 77.4821 47.0822 78.3635 47.5064 79.3913C47.9305 80.4192 48.0447 81.5487 47.8349 82.6407C47.0119 86.3407 42.4799 87.7117 38.4429 87.5657C34.4059 87.4197 25.3169 85.6117 27.0629 65.2567C28.5729 47.6627 44.4709 49.5297 47.8519 53.2127Z" fill="#F9D2DD"/>
<path d="M39.0361 60.6852C39.0361 60.6852 45.6701 61.6602 46.3231 57.7852C47.3971 51.4102 38.9971 53.1262 38.9971 53.1262L39.0361 60.6852Z" fill="#F9E1E8"/>
<path d="M39.1972 74.3197C39.1972 74.3197 45.8312 75.2947 46.4842 71.4197C47.5582 65.0427 39.1582 66.7617 39.1582 66.7617L39.1972 74.3197Z" fill="#F9E1E8"/>
<path d="M39.1458 84.9281C39.1458 84.9281 44.7208 85.7481 45.2708 82.4951C46.1758 77.1341 39.1138 78.5771 39.1138 78.5771L39.1458 84.9281Z" fill="#F9E1E8"/>
<path d="M99.5919 89.8554C95.3719 89.3011 91.4724 87.3076 88.5519 84.2114C83.6629 79.0254 85.3129 72.0254 85.3129 72.0254" stroke="#1F1F39" stroke-width="0.501" stroke-miterlimit="10"/>
<path d="M36.0684 76.7394L45.6164 76.8134C46.79 76.5305 47.8327 75.8571 48.5733 74.9038C49.3139 73.9504 49.7085 72.7736 49.6924 71.5664C49.4783 72.5959 48.9562 73.5359 48.1953 74.2616C47.4344 74.9873 46.4708 75.4643 45.4324 75.6294C43.0154 76.1904 36.0684 76.7394 36.0684 76.7394Z" fill="#F9ACC0"/>
<path d="M38.3042 86.3586C35.1773 86.0237 32.2952 84.5105 30.2442 82.1266C29.2962 80.9074 28.4652 79.6016 27.7622 78.2266C29.9522 86.4796 35.5222 87.4566 38.4442 87.5646C42.2982 87.7046 46.6032 86.4646 47.6992 83.1256C47.3975 83.6471 46.9938 84.1025 46.5122 84.4646C44.096 86.0694 41.1793 86.7424 38.3042 86.3586V86.3586Z" fill="#F9ACC0"/>
<path d="M46.8934 62.8008C48.6934 61.5908 50.7344 57.8358 48.7504 54.4258C49.2328 55.3647 49.3765 56.4412 49.1574 57.4738C48.3474 61.0878 45.9154 62.3418 42.5934 63.0058C40.1455 63.4542 37.6753 63.77 35.1934 63.9518L43.4684 64.2888C44.7089 64.0616 45.8807 63.5525 46.8934 62.8008Z" fill="#F9ACC0"/>
<path d="M35.1138 64.2441L44.5878 64.3331" stroke="#1F1F39" stroke-width="0.501" stroke-miterlimit="10" stroke-linecap="round"/>
<path d="M36.0771 76.7051L45.5511 76.7931" stroke="#1F1F39" stroke-width="0.501" stroke-miterlimit="10" stroke-linecap="round"/>
<path d="M90.1948 26.7474C90.2474 28.5783 90.7473 30.3685 91.6509 31.9617C92.5546 33.5549 93.8344 34.9027 95.3788 35.8874C95.4598 37.5594 95.1918 39.8684 92.8098 40.9324C92.704 40.9711 92.6124 41.0408 92.5468 41.1324C92.4722 41.2363 92.4377 41.3637 92.4496 41.4911C92.4616 41.6185 92.5192 41.7372 92.6118 41.8254C92.7194 41.9285 92.8629 41.9855 93.0118 41.9844H93.0518H93.0608C95.5718 41.8667 97.9469 40.8095 99.7148 39.0224C99.9656 38.7811 100.269 38.602 100.602 38.4997C100.935 38.3974 101.287 38.3747 101.63 38.4334C102.679 38.6254 103.743 38.7215 104.809 38.7204C112.881 38.7204 119.423 33.3594 119.423 26.7464C119.423 20.1334 112.881 14.7734 104.809 14.7734C96.7368 14.7734 90.1948 20.1344 90.1948 26.7474Z" fill="#3D5CFF"/>
</svg>
